<svg width="720" height="720" viewBox="0 0 720 720" fill="none" xmlns="http://www.w3.org/2000/svg">
<rect width="720" height="720" rx="360" fill="#F2F9F1"/>
<path d="M264 175.117L292.978 167.353C314.316 161.635 336.25 174.298 341.968 195.637L434.003 539.118L405.025 546.883C383.687 552.601 361.753 539.937 356.036 518.599L264 175.117Z" fill="#DD849B" fill-opacity="0.6"/>
<path d="M254.14 195.637C259.857 174.298 281.791 161.635 303.129 167.353L332.107 175.117L239.968 518.987C234.25 540.326 212.316 552.989 190.978 547.271L162 539.507L254.14 195.637Z" fill="#DD849B"/>
<path d="M464.14 195.637C469.857 174.298 491.791 161.635 513.13 167.353L542.107 175.117L449.968 518.987C444.25 540.326 422.317 552.989 400.978 547.271L372 539.507L464.14 195.637Z" fill="#DD849B"/>
</svg>
